<?xml version="1.0" encoding="UTF-8"?> <!-- Generator: Adobe Illustrator 16.0.0, SVG Export Plug-In . SVG Version: 6.00 Build 0) --> <svg xmlns="http://www.w3.org/2000/svg" xmlns:xlink="http://www.w3.org/1999/xlink" version="1.1" x="0px" y="0px" width="1024px" height="683px" viewBox="0 0 5000 3333.332" xml:space="preserve"> <g id="Layer_1"> </g> <g id="Layer_2"> <path fill="#EAF4FE" d="M2976.844,392.966c-412.276-153.893-798.263-15.269-1314.328,415.509 C1174.917,1219.949,557.241,1923.607,336.862,2456.129c-101.088,218.941-115.513,387.518-66.536,518.84h4022.275 c78.538-114.297,151.923-239.262,216.322-373.536C5102.203,1472.543,3777.5,718.633,2976.844,392.966z"></path> <g> <g> <rect x="1433.798" y="2103.58" fill="#C5E1F9" width="828.864" height="97.362"></rect> <g> <rect x="2136.492" y="2103.564" fill="#EAF4FE" width="34.761" height="97.359"></rect> <rect x="1525.216" y="2103.564" fill="#EAF4FE" width="34.77" height="97.359"></rect> </g> </g> <g> <rect x="1425.236" y="2208.396" fill="#9AC7F7" width="1001.51" height="201.682"></rect> <g> <rect x="1477.382" y="2260.553" fill="none" stroke="#EAF4FE" stroke-width="4.8357" width="629.434" height="97.352"></rect> <rect x="2176.366" y="2260.553" fill="none" stroke="#EAF4FE" stroke-width="4.8357" width="198.197" height="97.352"></rect> </g> </g> <g> <rect x="1343.226" y="2806.293" fill="#FFFFFF" width="1125.322" height="170.404"></rect> <g> <path fill="#C5E1F9" d="M2382.702,2851.713v79.581h-46.987v-79.581H2382.702 M2413.115,2821.301h-107.813v140.406h107.813 V2821.301L2413.115,2821.301z"></path> <path fill="#C5E1F9" d="M1476.049,2851.713v79.581h-46.987v-79.581H1476.049 M1506.462,2821.301h-107.813v140.406h107.813 V2821.301L1506.462,2821.301z"></path> </g> <path fill="#C5E1F9" d="M2232.061,2851.713v79.581h-652.347v-79.581H2232.061 M2262.474,2821.301h-713.173v140.406h713.173 V2821.301L2262.474,2821.301z"></path> <rect x="1379.742" y="2420.314" fill="#69AEEB" width="1125.331" height="170.387"></rect> <rect x="2411.226" y="2420.334" fill="#C5E1F9" width="10.38" height="170.367"></rect> <rect x="1447.987" y="2420.334" fill="#C5E1F9" width="10.371" height="170.367"></rect> <path fill="#FFFFFF" d="M2372.015,2461.379v88.26h-859.224v-88.26H2372.015 M2382.451,2450.945h-880.094v109.127h880.094 V2450.945L2382.451,2450.945z"></path> <rect x="1311.938" y="2595.915" fill="#C5E1F9" width="1001.483" height="201.69"></rect> <rect x="2082.363" y="2595.932" fill="#FFFFFF" width="168.469" height="201.674"></rect> <rect x="2016.107" y="2595.932" fill="#FFFFFF" width="31.296" height="201.69"></rect> <g> <rect x="1367.353" y="2648.087" fill="none" stroke="#FFFFFF" stroke-width="9.6715" width="107.815" height="97.353"></rect> </g> </g> <g> <rect x="1379.544" y="1326.729" fill="#FFFFFF" width="1001.483" height="201.69"></rect> <g> <rect x="1431.691" y="1378.911" fill="none" stroke="#EAF4FE" stroke-width="4.8357" width="629.406" height="97.323"></rect> <rect x="2130.647" y="1378.911" fill="none" stroke="#EAF4FE" stroke-width="4.8357" width="198.233" height="97.323"></rect> </g> </g> <g> <rect x="1297.524" y="1924.633" fill="#FFFFFF" width="1125.331" height="170.404"></rect> <g> <path fill="#69AEEB" d="M2337.002,1970.046v79.579h-46.998v-79.579H2337.002 M2367.416,1939.633h-107.824v140.404h107.824 V1939.633L2367.416,1939.633z"></path> <path fill="#69AEEB" d="M1430.332,1970.046v79.579h-46.97v-79.579H1430.332 M1460.745,1939.633h-107.796v140.404h107.796 V1939.633L1460.745,1939.633z"></path> </g> <path fill="#69AEEB" d="M2186.359,1970.046v79.579h-652.355v-79.579H2186.359 M2216.772,1939.633H1503.59v140.404h713.182 V1939.633L2216.772,1939.633z"></path> <rect x="1334.051" y="1538.637" fill="#C5E1F9" width="1125.314" height="170.405"></rect> <rect x="2365.534" y="1538.656" fill="#69AEEB" width="10.361" height="170.386"></rect> <rect x="1402.287" y="1538.656" fill="#69AEEB" width="10.372" height="170.386"></rect> <path fill="#FFFFFF" d="M2326.306,1579.719v88.241h-859.207v-88.241H2326.306 M2336.741,1569.283h-880.075v109.111h880.075 V1569.283L2336.741,1569.283z"></path> <rect x="1266.228" y="1714.227" fill="#69AEEB" width="1001.502" height="201.701"></rect> <rect x="2036.663" y="1714.262" fill="#FFFFFF" width="168.469" height="201.666"></rect> <rect x="1970.416" y="1714.262" fill="#FFFFFF" width="31.285" height="201.691"></rect> <g> <rect x="1321.672" y="1766.42" fill="none" stroke="#FFFFFF" stroke-width="9.6715" width="107.794" height="97.359"></rect> </g> </g> <g> <g> <polygon fill="#69AEEB" points="1259.261,2161.373 1413.145,2215.373 1145.027,2979.416 991.17,2925.434 "></polygon> <g> <rect x="1207.197" y="2303.985" transform="matrix(-0.9436 -0.3311 0.3311 -0.9436 1735.365 4942.9873)" fill="#FFFFFF" width="163.063" height="39.378"></rect> <polygon fill="#FFFFFF" points="1043.3,2776.852 1197.165,2830.844 1184.12,2867.965 1030.246,2813.99 "></polygon> </g> </g> <g> <polygon fill="#FFFFFF" points="1144.272,2075.868 1274.099,2121.947 969.934,2979.416 840.107,2933.346 "></polygon> <g> <polygon fill="none" stroke="#C5E1F9" stroke-width="7.8194" points="1190.25,2232.228 1219.387,2150.083 1169.048,2132.22 1139.913,2214.367 "></polygon> <polygon fill="none" stroke="#C5E1F9" stroke-width="7.8194" points="945.201,2923.092 974.335,2840.938 923.998,2823.065 894.836,2905.237 "></polygon> </g> <polygon fill="none" stroke="#C5E1F9" stroke-width="7.8194" points="985.914,2808.291 1178.701,2264.883 1128.326,2246.994 935.594,2790.447 "></polygon> </g> <g> <polygon fill="#C5E1F9" points="938.385,2161.77 1092.071,2216.283 821.378,2979.416 667.703,2924.892 "></polygon> <g> <polygon fill="none" stroke="#69AEEB" stroke-width="7.8194" points="1008.205,2326.583 1037.34,2244.4 963.135,2218.102 934.018,2300.238 "></polygon> <polygon fill="none" stroke="#69AEEB" stroke-width="7.8194" points="796.611,2923.082 825.756,2840.938 751.55,2814.621 722.434,2896.775 "></polygon> </g> <polygon fill="none" stroke="#69AEEB" stroke-width="7.8194" points="837.324,2808.291 996.61,2359.219 922.469,2332.893 763.156,2781.957 "></polygon> </g> </g> </g> <rect x="1681.26" y="3048.723" fill="#0561FC" width="1078.66" height="92.193"></rect> <linearGradient id="SVGID_1_" gradientUnits="userSpaceOnUse" x1="2220.5894" y1="2919.6523" x2="2220.5894" y2="2827.4609"> <stop offset="0" style="stop-color:#9AC7F7"></stop> <stop offset="1" style="stop-color:#EAF4FE"></stop> </linearGradient> <rect x="1681.26" y="2827.461" fill="url(#SVGID_1_)" width="1078.66" height="92.191"></rect> <linearGradient id="SVGID_2_" gradientUnits="userSpaceOnUse" x1="2220.5894" y1="3094.8184" x2="2220.5894" y2="2891.9941"> <stop offset="0" style="stop-color:#9AC7F7"></stop> <stop offset="1" style="stop-color:#EAF4FE"></stop> </linearGradient> <rect x="1681.26" y="2891.994" fill="url(#SVGID_2_)" width="1078.66" height="202.824"></rect> <linearGradient id="SVGID_3_" gradientUnits="userSpaceOnUse" x1="2220.5894" y1="3076.3799" x2="2220.5894" y2="2891.9941"> <stop offset="0" style="stop-color:#9AC7F7"></stop> <stop offset="1" style="stop-color:#EAF4FE"></stop> </linearGradient> <rect x="1681.26" y="2891.994" fill="url(#SVGID_3_)" width="1078.66" height="184.386"></rect> <linearGradient id="SVGID_4_" gradientUnits="userSpaceOnUse" x1="2220.5894" y1="3030.2842" x2="2220.5894" y2="2891.9941"> <stop offset="0" style="stop-color:#9AC7F7"></stop> <stop offset="1" style="stop-color:#EAF4FE"></stop> </linearGradient> <rect x="1681.26" y="2891.994" fill="url(#SVGID_4_)" width="1078.66" height="138.29"></rect> <g> <path fill="#212A54" d="M3563.297,2594.113c-42.812,7.834-200.386,55.541-324.765-74.061 c-124.379-129.602,0-271.547-276.4-376.461c-276.39-104.914-359.318-259.205-152.02-493.721 c207.299-234.523,34.555-240.692,48.375-438.178c13.81-197.494,456.05-481.375,808.472-240.692 c217.896,148.823,304.03,191.318,158.925,623.321c-147.61,439.386,200.375,302.408,276.4,499.904 C4178.289,2291.712,3832.79,2544.74,3563.297,2594.113z"></path> <path fill="#EC9568" d="M3112.982,2622.203l-192.067,283.295c0,0-144.041-216.076-124.849-292.91 c19.205-76.825,105.637-206.463,139.244-273.689"></path> <path fill="#DD000B" d="M3062.736,2075.096l-151.425,278.207l216.078,345.717l110.432-259.293 C3237.82,2439.727,3260.995,1915.711,3062.736,2075.096z"></path> <path fill="#FD2227" d="M3101.61,2052.209c0,0,62.204-23.545,167.163-70.199c43.226-19.203,116.63-23.436,116.63-23.436 s256.599,20.763,501.479,342.483c244.885,321.704,536.962,692.35,536.962,692.35H3593.15 C3593.15,2993.407,3043.295,2681.977,3101.61,2052.209z"></path> <path fill="#F7B68B" d="M2920.916,2905.498c0,0-57.63-508.979-76.833-566.6s-14.396-182.459-81.622-43.224 c-67.218,139.261-67.218,465.772-72.026,561.8C2685.635,2953.514,2896.913,2953.514,2920.916,2905.498z"></path> <path fill="#F7B68B" d="M3367.477,2574.18l12.002,223.28l-482.565,52.814l-283.313-45.611l-105.626-4.808l-182.468,115.242 c0,0,1.224,9.606,24,9.606c4.81,0-16.799,13.207-16.799,13.207s22.803,33.609,134.445-6.007 c12.192-4.32-40.802,31.217-40.802,31.217s0,10.803,48.617,8.102c16.205-0.9,32.889-15.305,57.009-15.305 c25.209,0,84.026-1.207,117.646,3.592c33.609,4.808,58.88,19.662,111.631,25.218c68.434,7.203,114.045-15.61,114.045-15.61 s468.176,61.222,617.019,66.029c148.851,4.797,216.078,9.596,206.479-62.43c-9.607-72.018-24.013-465.764-24.013-465.764 L3367.477,2574.18z"></path> <path fill="#F7B68B" d="M2796.067,2239.664c0,0,48.015-30.412,120.041-44.816c72.026-14.406,139.254,72.025,177.669,76.824 c38.419,4.809,182.46,81.631,196.866,91.238c14.412,9.598,0,24.002-57.622,4.799c-57.611-19.213-139.244-38.416-139.244-38.416 l91.231,72.025l43.216,86.432c0,0-27.209,12.803-49.616-14.406c-20.484-24.865-32.019-48.016-32.019-48.016l-86.43-52.82 l48.024,96.028l57.62,96.036c0,0-44.817,27.209-81.63-57.619c-20.581-47.438-86.432-81.625-86.432-81.625l28.802,76.817 l24.021,54.424c0,0-21.114,30.773-43.218-6.392c-35.219-59.224-62.419-102.447-62.419-102.447s-96.039-46.412-129.654-108.832"></path> <line fill="none" stroke="#9AC7F7" stroke-width="4.2735" stroke-miterlimit="10" x1="3045.755" y1="2814.27" x2="3088.969" y2="3015.941"></line> <line fill="none" stroke="#FD2227" stroke-width="4.2735" stroke-miterlimit="10" x1="3007.345" y1="2819.068" x2="3031.358" y2="3001.527"></line> <path fill="#EC9568" d="M2487.383,2838.992c0,0-84.548,42.758-130.231,63.168l-31.646,12.938c0,0,1.224,9.606,24,9.606 l110.659-63.356l101.08-4.863L2487.383,2838.992z"></path> <g> <path fill="#EC9568" d="M2426.35,2963.704c0,0,0.019,2.046,0.63,2.046c0.27,0,0.585,0,0.819,0l21.059-17.233 C2437.811,2956.314,2426.35,2963.704,2426.35,2963.704z"></path> <path fill="#EC9568" d="M2567.079,2901.214h-87.466c0,0-63.887,36.318-113.944,50.526c20.347,1.837,52.281-1.881,101.483-19.349 c0.902-0.313,1.353-0.603,1.595-0.513l24.228-18.646L2567.079,2901.214z"></path> </g> <path fill="#EC9568" d="M3415.203,2735.969c0,0,93.292,5.186,155.504,49.247c62.194,44.052,90.698,108.858,121.802,119.213 c0.192,0.071,0.396,0.009,0.596,0.053c-5.256-81.569-10.814-208.693-14.404-297.161 C3592.971,2589.279,3464.189,2726.642,3415.203,2735.969z"></path> <path fill="#DD000B" d="M3389.283,2137.299c0,0-43.414,475.289-48.224,576.125c-4.799,100.846,432.157-19.203,432.157-19.203 s-36.015-278.496-84.028-436.954C3641.167,2098.809,3581.348,1974.034,3389.283,2137.299z"></path> <g> <path fill="#F7B68B" d="M3422.667,1963.977c-71.712-37.074-35.688-214.826-13.963-301.762 c24.695-98.748-240.676,80.228-240.676,80.228s80.228,80.237,61.718,178.976c-9.339,49.762-34.844,91.473-93.15,114.801 c22.34,129.232,32.019,223.848,84.22,229.799C3288.104,2273.688,3362.292,2154.756,3422.667,1963.977z"></path> <path fill="#EC9568" d="M3218.482,1951.049c59.655-31.854,114.205-71.486,162.086-117.546 c2.581-60.395,17.168-127.415,28.136-171.288c24.695-98.748-240.676,80.228-240.676,80.228s80.228,80.237,61.718,178.976 C3227.781,1931.863,3223.856,1941.648,3218.482,1951.049z"></path> <path fill="#F7B68B" d="M3149.509,1008.031c0,0-496.638,820.123,67.884,759.098c228.355-24.687,246.866-123.432,271.555-191.318 c24.679-67.884,104.906,43.207,123.424-92.57c18.521-135.777-24.687-129.602-86.402-67.893 c-61.711,61.717-86.406,30.861-92.571-67.885c-6.177-98.747,86.402-123.426-98.748-123.426 C3149.509,1224.037,3081.621,1156.153,3149.509,1008.031z"></path> <path fill="none" stroke="#212A54" stroke-width="4.2735" stroke-miterlimit="10" d="M3186.474,1477.064 c0,0-86.402,172.807-104.904,0"></path> <path fill="none" stroke="#212A54" stroke-width="4.2735" stroke-miterlimit="10" d="M3328.419,1501.752 c43.271-49.374,6.177-296.235-104.912-30.864"></path> <path fill="none" stroke="#212A54" stroke-width="4.2735" stroke-miterlimit="10" d="M3087.729,1427.699 c0,0,0.053-259.211-92.573-24.688"></path> <path fill="none" stroke="#212A54" stroke-width="4.2735" stroke-miterlimit="10" d="M3198.828,1254.9 c0,0,6.167,129.592-74.061,228.34"></path> </g> </g> </g> </svg> 