<svg xmlns="http://www.w3.org/2000/svg" xmlns:xlink="http://www.w3.org/1999/xlink" width="50" zoomAndPan="magnify" viewBox="0 0 375 374.999991" height="50" preserveAspectRatio="xMidYMid meet" version="1.0"><defs><clipPath id="e2c66c9d03"><path d="M 13.050781 69 L 361.800781 69 L 361.800781 308 L 13.050781 308 Z M 13.050781 69 " clip-rule="nonzero"/></clipPath></defs><g clip-path="url(#e2c66c9d03)"><path fill="#0cc0df" d="M 144.085938 235.460938 C 142.550781 235.191406 141.949219 235.082031 141.351562 234.972656 C 121.917969 231.355469 109.632812 219.589844 103.8125 201.105469 C 100.183594 189.582031 106.777344 181.09375 118.863281 180.535156 C 128.757812 180.078125 135.53125 185.765625 141.519531 192.382812 C 149.242188 200.917969 156.320312 210.027344 163.910156 218.691406 C 174.816406 231.164062 187.683594 239.1875 205.292969 236.714844 C 221.070312 234.496094 234.820312 228.15625 246.789062 217.726562 C 248.597656 216.160156 250.570312 214.800781 252.460938 213.332031 C 252.066406 212.871094 251.671875 212.394531 251.265625 211.929688 C 241.226562 215.046875 230.972656 216.09375 220.5 215.574219 C 204.667969 214.773438 189.574219 211.46875 176.054688 202.769531 C 163.730469 194.832031 154.648438 184.195312 150.320312 169.988281 C 146.835938 158.507812 153.980469 150.480469 165.867188 152.140625 C 170.574219 152.796875 174.53125 154.914062 178.082031 157.917969 C 180.976562 160.359375 183.75 162.949219 186.703125 165.316406 C 200.574219 176.472656 219.984375 177.09375 237.597656 164.980469 C 208.628906 164.851562 188.921875 148.914062 171.621094 128.722656 C 164.832031 120.816406 158.222656 112.769531 151.316406 104.992188 C 137.933594 89.9375 123.089844 76.675781 102.765625 72.152344 C 76.808594 66.375 51.742188 70.152344 27.6875 81.171875 C 22.890625 83.367188 18.285156 85.921875 13.339844 90.039062 C 15.789062 90.039062 17.121094 90.066406 18.457031 90.03125 C 30.585938 89.71875 39.671875 95.109375 46.230469 105.035156 C 51 112.253906 53.25 120.421875 54.960938 128.824219 C 57.503906 141.292969 56.1875 154.003906 57.65625 166.53125 C 61.433594 198.734375 77.890625 221.207031 108.53125 232.714844 C 119.769531 236.929688 131.292969 238.332031 144.085938 235.460938 Z M 66.648438 88.5625 C 61.804688 89.78125 57.9375 87.828125 53.949219 83.792969 C 60.777344 82.089844 66.800781 81.429688 73.269531 81.175781 C 72.742188 85.378906 70.261719 87.648438 66.648438 88.5625 Z M 225.296875 276.609375 C 224.875 273.507812 222.234375 272.144531 220.15625 270.527344 C 210.933594 263.359375 200.160156 260.816406 188.75 260.613281 C 181.9375 260.476562 175.191406 259.972656 168.757812 257.578125 C 165.820312 256.492188 162.515625 255.074219 162.597656 251.265625 C 162.664062 247.40625 166.023438 246.316406 169.085938 245.40625 C 171.585938 244.65625 174.171875 244.179688 177.027344 243.515625 C 169.792969 238.875 162.707031 238.222656 153.28125 242.019531 C 138.449219 247.988281 123.824219 247.28125 109.03125 241.9375 C 100.683594 238.917969 93.269531 234.183594 85.554688 229.992188 L 85.34375 230.144531 C 85.445312 230.074219 85.550781 230.007812 85.546875 230.007812 C 85.355469 229.421875 85.007812 229.410156 84.566406 229.734375 C 84.769531 229.914062 84.96875 230.089844 85.171875 230.265625 C 91.570312 240.753906 100.214844 249.1875 109.980469 256.410156 C 128.785156 270.296875 149.328125 278.566406 173.371094 274.894531 C 181.121094 273.710938 188.941406 272.785156 196.777344 272.160156 C 206.59375 271.371094 215.953125 274.132812 225.296875 276.609375 Z M 179.992188 126.144531 C 179.460938 125.765625 178.972656 124.820312 177.910156 125.800781 C 186.546875 137.496094 197.660156 146.121094 211.042969 151.550781 C 232.625 160.308594 254.535156 161.808594 276.949219 154.078125 C 294.34375 148.078125 306.855469 153.941406 313.359375 170.832031 C 314.296875 151.226562 302.75 136.9375 284.390625 134.136719 C 274.054688 132.5625 264.503906 135.992188 254.820312 138.800781 C 227.878906 146.613281 202.839844 142.753906 179.992188 126.144531 Z M 314.269531 202.625 C 317.777344 202.917969 321.285156 203.238281 324.808594 203.546875 C 316.867188 196.578125 307.210938 196.023438 297.417969 196.582031 C 282.527344 197.425781 271.796875 206.023438 262.015625 216.277344 C 253.40625 225.324219 245.613281 235.472656 232.75 239.101562 C 232.964844 239.496094 233.019531 239.6875 233.089844 239.6875 C 234.816406 239.714844 236.542969 239.796875 238.269531 239.714844 C 256.957031 238.871094 274.554688 234.925781 288.550781 221.367188 C 292.957031 217.09375 296.902344 212.363281 301.160156 207.925781 C 304.707031 204.230469 309.007812 202.179688 314.269531 202.625 Z M 270.871094 179.472656 C 256.945312 180.691406 244.824219 186.457031 233.457031 194.0625 C 224.695312 199.914062 215.339844 202.683594 204.8125 200.851562 C 202.964844 200.53125 201.101562 200.289062 199.238281 200.011719 C 199.222656 200.269531 199.195312 200.53125 199.183594 200.789062 C 199.847656 201.132812 200.488281 201.535156 201.183594 201.8125 C 202.9375 202.507812 204.664062 203.339844 206.484375 203.773438 C 226.738281 208.59375 246.117188 206.117188 263.59375 194.832031 C 274.597656 187.71875 286.007812 186.371094 298.355469 188.207031 C 299.609375 188.394531 300.84375 188.621094 302.109375 188.738281 C 303.265625 188.847656 304.476562 190.003906 306.054688 188.753906 C 295.242188 180.949219 283.613281 178.359375 270.871094 179.472656 Z M 221.050781 132.144531 C 228.371094 132.398438 235.644531 131.441406 243.289062 126.898438 C 241.058594 127.09375 240.105469 127.089844 239.195312 127.273438 C 228.65625 129.375 219.203125 127.074219 210.769531 120.414062 C 207.683594 117.96875 204.542969 115.585938 201.398438 113.191406 C 188.996094 103.699219 174.757812 100.523438 159.199219 100.789062 C 159.441406 101.554688 159.457031 102.082031 159.726562 102.355469 C 176.675781 119.488281 196.273438 131.292969 221.050781 132.144531 Z M 343.644531 220.058594 C 333.160156 209.667969 319.097656 208.320312 306.082031 217.40625 C 314.691406 217.789062 321.164062 220.535156 326.414062 225.976562 C 328.265625 227.894531 330.195312 229.785156 332.261719 231.457031 C 340.207031 237.851562 353.640625 238.164062 361.503906 232.21875 C 352.28125 228.628906 352.28125 228.628906 343.644531 220.058594 Z M 239.25 299.699219 C 230.027344 282.546875 214.550781 278.683594 196.667969 279.828125 C 201.945312 281.296875 206.878906 283.554688 211.421875 286.710938 C 215.585938 289.621094 219.082031 293.226562 222.535156 296.910156 C 229.375 304.214844 240.050781 308.691406 247.136719 307.179688 C 243.886719 305.125 241.003906 302.964844 239.25 299.699219 Z M 324.972656 203.898438 C 324.972656 203.789062 324.972656 203.679688 324.984375 203.566406 C 324.984375 203.5625 324.972656 203.578125 324.960938 203.59375 L 324.984375 203.5625 C 324.917969 203.554688 324.863281 203.550781 324.808594 203.546875 C 324.835938 203.578125 324.878906 203.605469 324.917969 203.636719 C 324.933594 203.722656 324.945312 203.8125 324.972656 203.898438 Z M 225.8125 277.011719 L 225.445312 276.808594 C 225.472656 276.890625 225.484375 276.957031 225.527344 277.023438 C 225.554688 277.066406 225.71875 277.011719 225.8125 277.011719 Z M 225.445312 276.808594 C 225.445312 276.753906 225.429688 276.699219 225.417969 276.628906 C 225.417969 276.628906 225.390625 276.65625 225.378906 276.683594 L 225.417969 276.644531 C 225.378906 276.628906 225.335938 276.617188 225.296875 276.605469 C 225.308594 276.65625 225.324219 276.683594 225.335938 276.738281 C 225.363281 276.765625 225.40625 276.78125 225.445312 276.808594 Z M 225.445312 276.808594 " fill-opacity="1" fill-rule="nonzero"/></g></svg>